<mxfile host="app.diagrams.net" modified="2024-03-26T17:18:44.181Z" agent="Mozilla/5.0 (Windows NT 10.0; Win64; x64) AppleWebKit/537.36 (KHTML, like Gecko) Chrome/123.0.0.0 Safari/537.36" etag="2Xuj3MAMtWVoKY7DTGdF" version="24.0.5" type="github" pages="2">
  <diagram name="910B" id="lxLUyDZ-_mMBVK15Qsm0">
    <mxGraphModel dx="794" dy="434" grid="1" gridSize="10" guides="1" tooltips="1" connect="1" arrows="1" fold="1" page="1" pageScale="1" pageWidth="827" pageHeight="1169" math="0" shadow="0">
      <root>
        <mxCell id="0" />
        <mxCell id="1" parent="0" />
        <mxCell id="LVG8VVzXwPnrs3J6AXQO-1" value="On-chip Buffer" style="rounded=1;whiteSpace=wrap;html=1;fillColor=#dae8fc;strokeColor=#6c8ebf;" vertex="1" parent="1">
          <mxGeometry x="170" y="352" width="400" height="88" as="geometry" />
        </mxCell>
        <mxCell id="LVG8VVzXwPnrs3J6AXQO-2" value="On-chip Buffer" style="rounded=1;whiteSpace=wrap;html=1;" vertex="1" parent="1">
          <mxGeometry x="180" y="367" width="380" height="63" as="geometry" />
        </mxCell>
        <mxCell id="LVG8VVzXwPnrs3J6AXQO-3" value="Da Vinci&amp;nbsp;&lt;div&gt;AI Core&lt;/div&gt;&lt;div&gt;0~7&lt;/div&gt;" style="rounded=1;whiteSpace=wrap;html=1;fillColor=#ffe6cc;strokeColor=#d79b00;" vertex="1" parent="1">
          <mxGeometry x="310" y="252" width="80" height="70" as="geometry" />
        </mxCell>
        <mxCell id="LVG8VVzXwPnrs3J6AXQO-4" value="Da Vinci&amp;nbsp;&lt;div&gt;AI Core&lt;/div&gt;&lt;div&gt;0~7&lt;/div&gt;" style="rounded=1;whiteSpace=wrap;html=1;fillColor=#ffe6cc;strokeColor=#d79b00;" vertex="1" parent="1">
          <mxGeometry x="305" y="258" width="80" height="70" as="geometry" />
        </mxCell>
        <mxCell id="LVG8VVzXwPnrs3J6AXQO-5" value="Da Vinci&amp;nbsp;&lt;div&gt;AI Core&lt;/div&gt;&lt;div&gt;0~7&lt;/div&gt;" style="rounded=1;whiteSpace=wrap;html=1;fillColor=#ffe6cc;strokeColor=#d79b00;" vertex="1" parent="1">
          <mxGeometry x="299" y="264" width="80" height="70" as="geometry" />
        </mxCell>
        <mxCell id="LVG8VVzXwPnrs3J6AXQO-6" value="Da Vinci&amp;nbsp;&lt;div&gt;AI Core&lt;/div&gt;&lt;div&gt;0~7&lt;/div&gt;" style="rounded=1;whiteSpace=wrap;html=1;fillColor=#ffe6cc;strokeColor=#d79b00;" vertex="1" parent="1">
          <mxGeometry x="293" y="270" width="80" height="70" as="geometry" />
        </mxCell>
        <mxCell id="LVG8VVzXwPnrs3J6AXQO-7" value="Da Vinci&amp;nbsp;&lt;div&gt;AI Core&lt;/div&gt;&lt;div&gt;0~7&lt;/div&gt;" style="rounded=1;whiteSpace=wrap;html=1;fillColor=#ffe6cc;strokeColor=#d79b00;" vertex="1" parent="1">
          <mxGeometry x="288" y="276" width="80" height="70" as="geometry" />
        </mxCell>
        <mxCell id="LVG8VVzXwPnrs3J6AXQO-8" value="Da Vinci&amp;nbsp;&lt;div&gt;AI Core&lt;/div&gt;&lt;div&gt;0~7&lt;/div&gt;" style="rounded=1;whiteSpace=wrap;html=1;fillColor=#ffe6cc;strokeColor=#d79b00;" vertex="1" parent="1">
          <mxGeometry x="282" y="282" width="80" height="70" as="geometry" />
        </mxCell>
        <mxCell id="LVG8VVzXwPnrs3J6AXQO-9" value="Da Vinci&amp;nbsp;&lt;div&gt;AI Core&lt;/div&gt;&lt;div&gt;0~7&lt;/div&gt;" style="rounded=1;whiteSpace=wrap;html=1;fillColor=#ffe6cc;strokeColor=#d79b00;" vertex="1" parent="1">
          <mxGeometry x="276" y="288" width="80" height="70" as="geometry" />
        </mxCell>
        <mxCell id="LVG8VVzXwPnrs3J6AXQO-10" value="Da Vinci&amp;nbsp;&lt;div&gt;AI Core&lt;/div&gt;&lt;div&gt;0~7&lt;/div&gt;" style="rounded=1;whiteSpace=wrap;html=1;fillColor=#ffe6cc;strokeColor=#d79b00;" vertex="1" parent="1">
          <mxGeometry x="270" y="294" width="80" height="70" as="geometry" />
        </mxCell>
        <mxCell id="LVG8VVzXwPnrs3J6AXQO-11" value="Da Vinci&amp;nbsp;&lt;div&gt;AI Core&lt;/div&gt;&lt;div&gt;0~7&lt;/div&gt;" style="rounded=1;whiteSpace=wrap;html=1;fillColor=#ffe6cc;strokeColor=#d79b00;" vertex="1" parent="1">
          <mxGeometry x="440" y="252" width="80" height="70" as="geometry" />
        </mxCell>
        <mxCell id="LVG8VVzXwPnrs3J6AXQO-12" value="Da Vinci&amp;nbsp;&lt;div&gt;AI Core&lt;/div&gt;&lt;div&gt;0~7&lt;/div&gt;" style="rounded=1;whiteSpace=wrap;html=1;fillColor=#ffe6cc;strokeColor=#d79b00;" vertex="1" parent="1">
          <mxGeometry x="435" y="258" width="80" height="70" as="geometry" />
        </mxCell>
        <mxCell id="LVG8VVzXwPnrs3J6AXQO-13" value="Da Vinci&amp;nbsp;&lt;div&gt;AI Core&lt;/div&gt;&lt;div&gt;0~7&lt;/div&gt;" style="rounded=1;whiteSpace=wrap;html=1;fillColor=#ffe6cc;strokeColor=#d79b00;" vertex="1" parent="1">
          <mxGeometry x="429" y="264" width="80" height="70" as="geometry" />
        </mxCell>
        <mxCell id="LVG8VVzXwPnrs3J6AXQO-14" value="Da Vinci&amp;nbsp;&lt;div&gt;AI Core&lt;/div&gt;&lt;div&gt;0~7&lt;/div&gt;" style="rounded=1;whiteSpace=wrap;html=1;fillColor=#ffe6cc;strokeColor=#d79b00;" vertex="1" parent="1">
          <mxGeometry x="423" y="270" width="80" height="70" as="geometry" />
        </mxCell>
        <mxCell id="LVG8VVzXwPnrs3J6AXQO-15" value="Da Vinci&amp;nbsp;&lt;div&gt;AI Core&lt;/div&gt;&lt;div&gt;0~7&lt;/div&gt;" style="rounded=1;whiteSpace=wrap;html=1;fillColor=#ffe6cc;strokeColor=#d79b00;" vertex="1" parent="1">
          <mxGeometry x="418" y="276" width="80" height="70" as="geometry" />
        </mxCell>
        <mxCell id="LVG8VVzXwPnrs3J6AXQO-16" value="Da Vinci&amp;nbsp;&lt;div&gt;AI Core&lt;/div&gt;&lt;div&gt;0~7&lt;/div&gt;" style="rounded=1;whiteSpace=wrap;html=1;fillColor=#ffe6cc;strokeColor=#d79b00;" vertex="1" parent="1">
          <mxGeometry x="412" y="282" width="80" height="70" as="geometry" />
        </mxCell>
        <mxCell id="LVG8VVzXwPnrs3J6AXQO-17" value="Da Vinci&amp;nbsp;&lt;div&gt;AI Core&lt;/div&gt;&lt;div&gt;0~7&lt;/div&gt;" style="rounded=1;whiteSpace=wrap;html=1;fillColor=#ffe6cc;strokeColor=#d79b00;" vertex="1" parent="1">
          <mxGeometry x="406" y="288" width="80" height="70" as="geometry" />
        </mxCell>
        <mxCell id="LVG8VVzXwPnrs3J6AXQO-18" value="Da Vinci&amp;nbsp;&lt;div&gt;AI Core&lt;/div&gt;&lt;div&gt;0~7&lt;/div&gt;" style="rounded=1;whiteSpace=wrap;html=1;fillColor=#ffe6cc;strokeColor=#d79b00;" vertex="1" parent="1">
          <mxGeometry x="400" y="294" width="80" height="70" as="geometry" />
        </mxCell>
        <mxCell id="LVG8VVzXwPnrs3J6AXQO-19" value="Da Vinci&amp;nbsp;&lt;div&gt;AI Core&lt;/div&gt;&lt;div&gt;0~7&lt;/div&gt;" style="rounded=1;whiteSpace=wrap;html=1;fillColor=#ffe6cc;strokeColor=#d79b00;" vertex="1" parent="1">
          <mxGeometry x="305" y="420" width="80" height="70" as="geometry" />
        </mxCell>
        <mxCell id="LVG8VVzXwPnrs3J6AXQO-20" value="Da Vinci&amp;nbsp;&lt;div&gt;AI Core&lt;/div&gt;&lt;div&gt;0~7&lt;/div&gt;" style="rounded=1;whiteSpace=wrap;html=1;fillColor=#ffe6cc;strokeColor=#d79b00;" vertex="1" parent="1">
          <mxGeometry x="300" y="426" width="80" height="70" as="geometry" />
        </mxCell>
        <mxCell id="LVG8VVzXwPnrs3J6AXQO-21" value="Da Vinci&amp;nbsp;&lt;div&gt;AI Core&lt;/div&gt;&lt;div&gt;0~7&lt;/div&gt;" style="rounded=1;whiteSpace=wrap;html=1;fillColor=#ffe6cc;strokeColor=#d79b00;" vertex="1" parent="1">
          <mxGeometry x="294" y="432" width="80" height="70" as="geometry" />
        </mxCell>
        <mxCell id="LVG8VVzXwPnrs3J6AXQO-22" value="Da Vinci&amp;nbsp;&lt;div&gt;AI Core&lt;/div&gt;&lt;div&gt;0~7&lt;/div&gt;" style="rounded=1;whiteSpace=wrap;html=1;fillColor=#ffe6cc;strokeColor=#d79b00;" vertex="1" parent="1">
          <mxGeometry x="288" y="438" width="80" height="70" as="geometry" />
        </mxCell>
        <mxCell id="LVG8VVzXwPnrs3J6AXQO-23" value="Da Vinci&amp;nbsp;&lt;div&gt;AI Core&lt;/div&gt;&lt;div&gt;0~7&lt;/div&gt;" style="rounded=1;whiteSpace=wrap;html=1;fillColor=#ffe6cc;strokeColor=#d79b00;" vertex="1" parent="1">
          <mxGeometry x="283" y="444" width="80" height="70" as="geometry" />
        </mxCell>
        <mxCell id="LVG8VVzXwPnrs3J6AXQO-24" value="Da Vinci&amp;nbsp;&lt;div&gt;AI Core&lt;/div&gt;&lt;div&gt;0~7&lt;/div&gt;" style="rounded=1;whiteSpace=wrap;html=1;fillColor=#ffe6cc;strokeColor=#d79b00;" vertex="1" parent="1">
          <mxGeometry x="277" y="450" width="80" height="70" as="geometry" />
        </mxCell>
        <mxCell id="LVG8VVzXwPnrs3J6AXQO-25" value="Da Vinci&amp;nbsp;&lt;div&gt;AI Core&lt;/div&gt;&lt;div&gt;0~7&lt;/div&gt;" style="rounded=1;whiteSpace=wrap;html=1;fillColor=#ffe6cc;strokeColor=#d79b00;" vertex="1" parent="1">
          <mxGeometry x="271" y="456" width="80" height="70" as="geometry" />
        </mxCell>
        <mxCell id="LVG8VVzXwPnrs3J6AXQO-26" value="Da Vinci&amp;nbsp;&lt;div&gt;AI Core&lt;/div&gt;&lt;div&gt;0~7&lt;/div&gt;" style="rounded=1;whiteSpace=wrap;html=1;fillColor=#ffe6cc;strokeColor=#d79b00;" vertex="1" parent="1">
          <mxGeometry x="265" y="462" width="80" height="70" as="geometry" />
        </mxCell>
        <mxCell id="LVG8VVzXwPnrs3J6AXQO-27" value="Da Vinci&amp;nbsp;&lt;div&gt;AI Core&lt;/div&gt;&lt;div&gt;0~7&lt;/div&gt;" style="rounded=1;whiteSpace=wrap;html=1;fillColor=#ffe6cc;strokeColor=#d79b00;" vertex="1" parent="1">
          <mxGeometry x="435" y="423" width="80" height="70" as="geometry" />
        </mxCell>
        <mxCell id="LVG8VVzXwPnrs3J6AXQO-28" value="Da Vinci&amp;nbsp;&lt;div&gt;AI Core&lt;/div&gt;&lt;div&gt;0~7&lt;/div&gt;" style="rounded=1;whiteSpace=wrap;html=1;fillColor=#ffe6cc;strokeColor=#d79b00;" vertex="1" parent="1">
          <mxGeometry x="430" y="429" width="80" height="70" as="geometry" />
        </mxCell>
        <mxCell id="LVG8VVzXwPnrs3J6AXQO-29" value="Da Vinci&amp;nbsp;&lt;div&gt;AI Core&lt;/div&gt;&lt;div&gt;0~7&lt;/div&gt;" style="rounded=1;whiteSpace=wrap;html=1;fillColor=#ffe6cc;strokeColor=#d79b00;" vertex="1" parent="1">
          <mxGeometry x="424" y="435" width="80" height="70" as="geometry" />
        </mxCell>
        <mxCell id="LVG8VVzXwPnrs3J6AXQO-30" value="Da Vinci&amp;nbsp;&lt;div&gt;AI Core&lt;/div&gt;&lt;div&gt;0~7&lt;/div&gt;" style="rounded=1;whiteSpace=wrap;html=1;fillColor=#ffe6cc;strokeColor=#d79b00;" vertex="1" parent="1">
          <mxGeometry x="418" y="441" width="80" height="70" as="geometry" />
        </mxCell>
        <mxCell id="LVG8VVzXwPnrs3J6AXQO-31" value="Da Vinci&amp;nbsp;&lt;div&gt;AI Core&lt;/div&gt;&lt;div&gt;0~7&lt;/div&gt;" style="rounded=1;whiteSpace=wrap;html=1;fillColor=#ffe6cc;strokeColor=#d79b00;" vertex="1" parent="1">
          <mxGeometry x="413" y="447" width="80" height="70" as="geometry" />
        </mxCell>
        <mxCell id="LVG8VVzXwPnrs3J6AXQO-32" value="Da Vinci&amp;nbsp;&lt;div&gt;AI Core&lt;/div&gt;&lt;div&gt;0~7&lt;/div&gt;" style="rounded=1;whiteSpace=wrap;html=1;fillColor=#ffe6cc;strokeColor=#d79b00;" vertex="1" parent="1">
          <mxGeometry x="407" y="453" width="80" height="70" as="geometry" />
        </mxCell>
        <mxCell id="LVG8VVzXwPnrs3J6AXQO-33" value="Da Vinci&amp;nbsp;&lt;div&gt;AI Core&lt;/div&gt;&lt;div&gt;0~7&lt;/div&gt;" style="rounded=1;whiteSpace=wrap;html=1;fillColor=#ffe6cc;strokeColor=#d79b00;" vertex="1" parent="1">
          <mxGeometry x="401" y="459" width="80" height="70" as="geometry" />
        </mxCell>
        <mxCell id="LVG8VVzXwPnrs3J6AXQO-34" value="Da Vinci&amp;nbsp;&lt;div&gt;AI Core&lt;/div&gt;&lt;div&gt;0~7&lt;/div&gt;" style="rounded=1;whiteSpace=wrap;html=1;fillColor=#ffe6cc;strokeColor=#d79b00;" vertex="1" parent="1">
          <mxGeometry x="395" y="465" width="80" height="70" as="geometry" />
        </mxCell>
        <mxCell id="LVG8VVzXwPnrs3J6AXQO-35" value="On-chip Buffer" style="rounded=1;whiteSpace=wrap;html=1;fillColor=#d5e8d4;strokeColor=#82b366;" vertex="1" parent="1">
          <mxGeometry x="260" y="371" width="290" height="49" as="geometry" />
        </mxCell>
        <mxCell id="LVG8VVzXwPnrs3J6AXQO-36" value="Task Scheduler" style="rounded=1;whiteSpace=wrap;html=1;fillColor=#e1d5e7;strokeColor=#9673a6;" vertex="1" parent="1">
          <mxGeometry x="200" y="376" width="60" height="40" as="geometry" />
        </mxCell>
        <mxCell id="LVG8VVzXwPnrs3J6AXQO-37" value="Subsystems" style="rounded=1;whiteSpace=wrap;html=1;fillColor=#e1d5e7;strokeColor=#9673a6;" vertex="1" parent="1">
          <mxGeometry x="590" y="290" width="70" height="207" as="geometry" />
        </mxCell>
        <mxCell id="LVG8VVzXwPnrs3J6AXQO-38" value="Network" style="text;html=1;align=center;verticalAlign=middle;whiteSpace=wrap;rounded=0;" vertex="1" parent="1">
          <mxGeometry x="690" y="322" width="60" height="30" as="geometry" />
        </mxCell>
        <mxCell id="LVG8VVzXwPnrs3J6AXQO-39" value="Host" style="text;html=1;align=center;verticalAlign=middle;whiteSpace=wrap;rounded=0;" vertex="1" parent="1">
          <mxGeometry x="690" y="358" width="60" height="30" as="geometry" />
        </mxCell>
        <mxCell id="LVG8VVzXwPnrs3J6AXQO-40" value="FPGA" style="text;html=1;align=center;verticalAlign=middle;whiteSpace=wrap;rounded=0;" vertex="1" parent="1">
          <mxGeometry x="690" y="396" width="60" height="30" as="geometry" />
        </mxCell>
        <mxCell id="LVG8VVzXwPnrs3J6AXQO-41" value="Extended Da Vinci Board" style="text;html=1;align=center;verticalAlign=middle;whiteSpace=wrap;rounded=0;" vertex="1" parent="1">
          <mxGeometry x="690" y="449" width="60" height="30" as="geometry" />
        </mxCell>
        <mxCell id="LVG8VVzXwPnrs3J6AXQO-42" value="NoC Mesh" style="text;html=1;align=center;verticalAlign=middle;whiteSpace=wrap;rounded=0;" vertex="1" parent="1">
          <mxGeometry x="138" y="358" width="150" height="6" as="geometry" />
        </mxCell>
        <mxCell id="LVG8VVzXwPnrs3J6AXQO-43" value="" style="group" vertex="1" connectable="0" parent="1">
          <mxGeometry x="200" y="290" width="60" height="56" as="geometry" />
        </mxCell>
        <mxCell id="LVG8VVzXwPnrs3J6AXQO-44" value="DMA&lt;div&gt;Engine&lt;/div&gt;" style="rounded=1;whiteSpace=wrap;html=1;fillColor=#e1d5e7;strokeColor=#9673a6;" vertex="1" parent="LVG8VVzXwPnrs3J6AXQO-43">
          <mxGeometry width="60" height="30" as="geometry" />
        </mxCell>
        <mxCell id="LVG8VVzXwPnrs3J6AXQO-45" value="HBM" style="rounded=1;whiteSpace=wrap;html=1;fillColor=#d5e8d4;strokeColor=#82b366;" vertex="1" parent="LVG8VVzXwPnrs3J6AXQO-43">
          <mxGeometry y="32" width="60" height="24" as="geometry" />
        </mxCell>
        <mxCell id="LVG8VVzXwPnrs3J6AXQO-46" value="" style="group" vertex="1" connectable="0" parent="1">
          <mxGeometry x="520" y="290" width="60" height="56" as="geometry" />
        </mxCell>
        <mxCell id="LVG8VVzXwPnrs3J6AXQO-47" value="DMA&lt;div&gt;Engine&lt;/div&gt;" style="rounded=1;whiteSpace=wrap;html=1;fillColor=#e1d5e7;strokeColor=#9673a6;" vertex="1" parent="LVG8VVzXwPnrs3J6AXQO-46">
          <mxGeometry width="60" height="30" as="geometry" />
        </mxCell>
        <mxCell id="LVG8VVzXwPnrs3J6AXQO-48" value="HBM" style="rounded=1;whiteSpace=wrap;html=1;fillColor=#d5e8d4;strokeColor=#82b366;" vertex="1" parent="LVG8VVzXwPnrs3J6AXQO-46">
          <mxGeometry y="32" width="60" height="24" as="geometry" />
        </mxCell>
        <mxCell id="LVG8VVzXwPnrs3J6AXQO-49" value="" style="group" vertex="1" connectable="0" parent="1">
          <mxGeometry x="200" y="440" width="60" height="56" as="geometry" />
        </mxCell>
        <mxCell id="LVG8VVzXwPnrs3J6AXQO-50" value="DMA&lt;div&gt;Engine&lt;/div&gt;" style="rounded=1;whiteSpace=wrap;html=1;fillColor=#e1d5e7;strokeColor=#9673a6;" vertex="1" parent="LVG8VVzXwPnrs3J6AXQO-49">
          <mxGeometry width="60" height="30" as="geometry" />
        </mxCell>
        <mxCell id="LVG8VVzXwPnrs3J6AXQO-51" value="HBM" style="rounded=1;whiteSpace=wrap;html=1;fillColor=#d5e8d4;strokeColor=#82b366;" vertex="1" parent="LVG8VVzXwPnrs3J6AXQO-49">
          <mxGeometry y="32" width="60" height="24" as="geometry" />
        </mxCell>
        <mxCell id="LVG8VVzXwPnrs3J6AXQO-52" value="" style="group" vertex="1" connectable="0" parent="1">
          <mxGeometry x="520" y="440" width="60" height="63" as="geometry" />
        </mxCell>
        <mxCell id="LVG8VVzXwPnrs3J6AXQO-53" value="DMA&lt;div&gt;Engine&lt;/div&gt;" style="rounded=1;whiteSpace=wrap;html=1;fillColor=#e1d5e7;strokeColor=#9673a6;" vertex="1" parent="LVG8VVzXwPnrs3J6AXQO-52">
          <mxGeometry width="60" height="33.75" as="geometry" />
        </mxCell>
        <mxCell id="LVG8VVzXwPnrs3J6AXQO-54" value="HBM" style="rounded=1;whiteSpace=wrap;html=1;fillColor=#d5e8d4;strokeColor=#82b366;" vertex="1" parent="LVG8VVzXwPnrs3J6AXQO-52">
          <mxGeometry y="36" width="60" height="27" as="geometry" />
        </mxCell>
        <mxCell id="LVG8VVzXwPnrs3J6AXQO-55" value="" style="endArrow=classic;html=1;rounded=0;entryX=0.25;entryY=0;entryDx=0;entryDy=0;" edge="1" parent="1">
          <mxGeometry width="50" height="50" relative="1" as="geometry">
            <mxPoint x="660" y="336" as="sourcePoint" />
            <mxPoint x="695" y="336" as="targetPoint" />
          </mxGeometry>
        </mxCell>
        <mxCell id="LVG8VVzXwPnrs3J6AXQO-56" value="" style="endArrow=classic;html=1;rounded=0;entryX=0.25;entryY=0;entryDx=0;entryDy=0;" edge="1" parent="1">
          <mxGeometry width="50" height="50" relative="1" as="geometry">
            <mxPoint x="661" y="373" as="sourcePoint" />
            <mxPoint x="696" y="373" as="targetPoint" />
          </mxGeometry>
        </mxCell>
        <mxCell id="LVG8VVzXwPnrs3J6AXQO-57" value="" style="endArrow=classic;html=1;rounded=0;entryX=0.25;entryY=0;entryDx=0;entryDy=0;" edge="1" parent="1">
          <mxGeometry width="50" height="50" relative="1" as="geometry">
            <mxPoint x="660" y="410" as="sourcePoint" />
            <mxPoint x="695" y="410" as="targetPoint" />
          </mxGeometry>
        </mxCell>
        <mxCell id="LVG8VVzXwPnrs3J6AXQO-58" value="" style="endArrow=classic;html=1;rounded=0;entryX=0.25;entryY=0;entryDx=0;entryDy=0;" edge="1" parent="1">
          <mxGeometry width="50" height="50" relative="1" as="geometry">
            <mxPoint x="660" y="461" as="sourcePoint" />
            <mxPoint x="695" y="461" as="targetPoint" />
          </mxGeometry>
        </mxCell>
        <mxCell id="LVG8VVzXwPnrs3J6AXQO-59" value="ARM CPU Core" style="rounded=1;whiteSpace=wrap;html=1;fillColor=#fff2cc;strokeColor=#d6b656;" vertex="1" parent="1">
          <mxGeometry x="120" y="278.5" width="70" height="47" as="geometry" />
        </mxCell>
        <mxCell id="LVG8VVzXwPnrs3J6AXQO-60" value="ARM CPU Core" style="rounded=1;whiteSpace=wrap;html=1;fillColor=#fff2cc;strokeColor=#d6b656;" vertex="1" parent="1">
          <mxGeometry x="110" y="288.5" width="70" height="47" as="geometry" />
        </mxCell>
        <mxCell id="LVG8VVzXwPnrs3J6AXQO-61" value="ARM CPU Core" style="rounded=1;whiteSpace=wrap;html=1;fillColor=#fff2cc;strokeColor=#d6b656;" vertex="1" parent="1">
          <mxGeometry x="100" y="300" width="70" height="47" as="geometry" />
        </mxCell>
        <mxCell id="LVG8VVzXwPnrs3J6AXQO-62" value="ARM CPU Cores" style="rounded=1;whiteSpace=wrap;html=1;fillColor=#fff2cc;strokeColor=#d6b656;" vertex="1" parent="1">
          <mxGeometry x="90" y="308.5" width="70" height="47" as="geometry" />
        </mxCell>
        <mxCell id="LVG8VVzXwPnrs3J6AXQO-63" value="DDR" style="rounded=1;whiteSpace=wrap;html=1;fillColor=#d5e8d4;strokeColor=#82b366;" vertex="1" parent="1">
          <mxGeometry x="103" y="426" width="57" height="33" as="geometry" />
        </mxCell>
        <mxCell id="LVG8VVzXwPnrs3J6AXQO-64" value="DDR" style="rounded=1;whiteSpace=wrap;html=1;fillColor=#d5e8d4;strokeColor=#82b366;" vertex="1" parent="1">
          <mxGeometry x="103" y="462" width="57" height="33" as="geometry" />
        </mxCell>
        <mxCell id="LVG8VVzXwPnrs3J6AXQO-65" value="L3 Cache" style="rounded=1;whiteSpace=wrap;html=1;fillColor=#d5e8d4;strokeColor=#82b366;" vertex="1" parent="1">
          <mxGeometry x="103" y="379" width="57" height="33" as="geometry" />
        </mxCell>
      </root>
    </mxGraphModel>
  </diagram>
  <diagram id="-APn7cizpC-4NWeEESLW" name="Page-2">
    <mxGraphModel dx="794" dy="434" grid="1" gridSize="10" guides="1" tooltips="1" connect="1" arrows="1" fold="1" page="1" pageScale="1" pageWidth="827" pageHeight="1169" math="0" shadow="0">
      <root>
        <mxCell id="0" />
        <mxCell id="1" parent="0" />
      </root>
    </mxGraphModel>
  </diagram>
</mxfile>
